{"title":"Vengeance (2009) DVDRip XviD AC3 peaSoup","uid":8930681,"size":734527488,"categoryP":"video","categoryS":"movies","magnet":"?xt=urn:btih:f3402a9018aef48e664ac8d6a7664245ef8fdee0&amp;dn=Vengeance+%282009%29+DVDRip+XviD+AC3+peaSoup&amp;tr=udp%3A%2F%2Ftracker.openbittorrent.com%3A80&amp;tr=udp%3A%2F%2Fopen.demonii.com%3A1337&amp;tr=udp%3A%2F%2Ftracker.coppersurfer.tk%3A6969&amp;tr=udp%3A%2F%2Fexodus.desync.com%3A6969","seeders":2,"leechers":0,"uploader":"peaSoup","files":-1,"time":1379462530,"description":"Storyline\n\nA French chef swears revenge after a violent attack on his daughter's family in Hong Kong, during which her husband and her two children are murdered. To help him find the killers, he hires three local hit-men working for the mafia.                    &lt;a href=&quot; http://imageshack.us/a/img545/3610/4u0p.jpg&quot; rel=&quot;nofollow&quot; target=&quot;_NEW&quot;&gt; http://imageshack.us/a/img545/3610/4u0p.jpg&lt;/a&gt;                                         &lt;a href=&quot; http://imageshack.us/a/img706/6600/yrp9.jpg&quot; rel=&quot;nofollow&quot; target=&quot;_NEW&quot;&gt; http://imageshack.us/a/img706/6600/yrp9.jpg&lt;/a&gt;                                         &lt;a href=&quot; http://imageshack.us/a/img9/6994/5jxx.jpg&quot; rel=&quot;nofollow&quot; target=&quot;_NEW&quot;&gt; http://imageshack.us/a/img9/6994/5jxx.jpg&lt;/a&gt;                                           &lt;a href=&quot; http://imageshack.us/a/img855/3580/ly7q.jpg&quot; rel=&quot;nofollow&quot; target=&quot;_NEW&quot;&gt; http://imageshack.us/a/img855/3580/ly7q.jpg&lt;/a&gt;                                         &lt;a href=&quot; http://imageshack.us/a/img580/8413/dhxg.jpg&quot; rel=&quot;nofollow&quot; target=&quot;_NEW&quot;&gt; http://imageshack.us/a/img580/8413/dhxg.jpg&lt;/a&gt;                                          Format                                   : AVI\nFormat/Info                              : Audio Video Interleave\nFile size                                : 701 MiB\nDuration                                 : 1h 44mn\nOverall bit rate                         : 939 Kbps\nWriting application                      : VirtualDubMod 1.5.4.1 (build 2178/release)\nWriting library                          : VirtualDubMod build 2178/release\n\nVideo\nID                                       : 0\nFormat                                   : MPEG-4 Visual\nFormat profile                           : Advanced Simple@L5\nFormat settings, BVOP                    : 1\nFormat settings, QPel                    : No\nFormat settings, GMC                     : No warppoints\nFormat settings, Matrix                  : Custom\nCodec ID                                 : XVID\nCodec ID/Hint                            : XviD\nDuration                                 : 1h 44mn\nBit rate                                 : 484 Kbps\nWidth                                    : 720 pixels\nHeight                                   : 304 pixels\nDisplay aspect ratio                     : 2.35:1\nFrame rate                               : 25.000 fps\nColor space                              : YUV\nChroma subsampling                       : 4:2:0\nBit depth                                : 8 bits\nScan type                                : Progressive\nCompression mode                         : Lossy\nBits/(Pixel*Frame)                       : 0.089\nStream size                              : 361 MiB (52%)\nWriting library                          : XviD 1.2.1 (UTC 2008-12-04)\n\nAudio\nID                                       : 1\nFormat                                   : AC-3\nFormat/Info                              : Audio Coding 3\nMode extension                           : CM (complete main)\nFormat settings, Endianness              : Big\nCodec ID                                 : 2000\nDuration                                 : 1h 44mn\nBit rate mode                            : Constant\nBit rate                                 : 448 Kbps\nChannel(s)                               : 6 channels\nChannel positions                        : Front: L C R, Side: L R, LFE\nSampling rate                            : 48.0 KHz\nBit depth                                : 16 bits\nCompression mode                         : Lossy\nDelay relative to video                  : 15ms\nStream size                              : 334 MiB (48%)\nAlignment                                : Split accross interleaves\nInterleave, duration                     : 96 ms (2.40 video frames)\nInterleave, preload duration             : 96 ms\nLanguage                                 : English\n\n\n","torrent":{"xt":"urn:btih:f3402a9018aef48e664ac8d6a7664245ef8fdee0","amp;dn":"Vengeance+%282009%29+DVDRip+XviD+AC3+peaSoup","amp;tr":["udp%3A%2F%2Ftracker.openbittorrent.com%3A80","udp%3A%2F%2Fopen.demonii.com%3A1337","udp%3A%2F%2Ftracker.coppersurfer.tk%3A6969","udp%3A%2F%2Fexodus.desync.com%3A6969"],"infoHash":"f3402a9018aef48e664ac8d6a7664245ef8fdee0","infoHashBuffer":{"type":"Buffer","data":[243,64,42,144,24,174,244,142,102,74,200,214,167,102,66,69,239,143,222,224]},"announce":[],"urlList":[]}}